<svg width="600" height="200" viewBox="0 0 600 200" 
     xmlns="http://www.w3.org/2000/svg">

  <defs>
    <linearGradient id="bgGrad" x1="0%" y1="0%" x2="100%" y2="100%">
      <stop offset="0%" style="stop-color:#FFE5F1"/>
      <stop offset="100%" style="stop-color:#E8F9FF"/>
    </linearGradient>
    <filter id="softShadow" x="-20%" y="-20%" width="140%" height="140%">
      <feDropShadow dx="0" dy="2" stdDeviation="3" flood-color="#000" flood-opacity="0.1"/>
    </filter>
    <pattern id="dots" width="12" height="12" patternUnits="userSpaceOnUse">
      <circle cx="6" cy="6" r="1.5" fill="#B8A9C9" opacity="0.3"/>
    </pattern>
  </defs>

  <rect width="600" height="200" fill="url(#bgGrad)" rx="20"/>
  <rect width="600" height="200" fill="url(#dots)"/>

  <circle cx="30" cy="25" r="8" fill="#FF9EBB" opacity="0.6"/>
  <circle cx="50" cy="40" r="5" fill="#7DD3FC" opacity="0.5"/>
  <circle cx="25" cy="170" r="6" fill="#FCD34D" opacity="0.5"/>
  <circle cx="570" cy="30" r="7" fill="#B088F9" opacity="0.5"/>
  <circle cx="580" cy="160" r="9" fill="#6EE7B7" opacity="0.4"/>
  <circle cx="550" cy="50" r="4" fill="#FF85A2" opacity="0.6"/>

  <polygon points="560,20 563,28 572,28 565,34 568,42 560,37 552,42 555,34 548,28 557,28" 
           fill="#FCD34D" opacity="0.7"/>
  <polygon points="45,160 47,166 54,166 49,170 51,176 45,172 39,176 41,170 36,166 43,166" 
           fill="#FF85A2" opacity="0.6"/>
  <polygon points="520,175 522,181 529,181 524,185 526,191 520,187 514,191 516,185 511,181 518,181" 
           fill="#7DD3FC" opacity="0.6"/>

  <g class="identity-card">
    <rect x="15" y="15" width="140" height="170" 
          fill="#FFFFFF" stroke="#F0D9E8" stroke-width="2" rx="20" filter="url(#softShadow)"/>
    <text x="85.0" y="45" text-anchor="middle" 
          fill="#5D4E6D" font-family="'Fredoka One', 'Bubblegum Sans', cursive" font-size="22" font-weight="bold">
      SHYU216
    </text>
    <text x="85.0" y="63" text-anchor="middle" 
          fill="#FF85A2" font-family="'Varela Round', 'Nunito', sans-serif" font-size="9">
      10,000 Hou
    </text>
    <text x="85.0" y="77" text-anchor="middle" 
          fill="#8B7BA8" font-family="'Varela Round', 'Nunito', sans-serif" font-size="8">
      2,492 hrs 12 mins
    </text>
    <rect x="25" y="90" width="120" height="8" rx="4" 
          fill="#F0D9E8" opacity="0.3"/>
    <rect x="25" y="90" width="29.90654874103333" height="8" rx="4" 
          fill="#7DD3FC"/>
    <text x="85.0" y="110" text-anchor="middle" 
          fill="#B8A9C9" font-family="'Varela Round', 'Nunito', sans-serif" font-size="7">
      24.9% COMPLETE ✨
    </text>
  </g>

  <g class="stat-repos">
    <rect x="175" y="15" width="70" height="170" 
          fill="#FFFFFF" stroke="#7DD3FC" stroke-width="2" rx="20" filter="url(#softShadow)"/>
    <text x="210.0" y="95.0" text-anchor="middle" 
          fill="#7DD3FC" font-family="'Fredoka One', 'Bubblegum Sans', cursive" font-size="20" font-weight="bold">
      82
    </text>
    <text x="210.0" y="112.0" text-anchor="middle" 
          fill="#B8A9C9" font-family="'Varela Round', 'Nunito', sans-serif" font-size="7">
      REPOS
    </text>
  </g>

  <g class="stat-stars">
    <rect x="255" y="15" width="70" height="170" 
          fill="#FFFFFF" stroke="#FCD34D" stroke-width="2" rx="20" filter="url(#softShadow)"/>
    <text x="290.0" y="95.0" text-anchor="middle" 
          fill="#FCD34D" font-family="'Fredoka One', 'Bubblegum Sans', cursive" font-size="20" font-weight="bold">
      18
    </text>
    <text x="290.0" y="112.0" text-anchor="middle" 
          fill="#B8A9C9" font-family="'Varela Round', 'Nunito', sans-serif" font-size="7">
      STARS
    </text>
  </g>

  <g class="stat-followers">
    <rect x="335" y="15" width="70" height="170" 
          fill="#FFFFFF" stroke="#FF85A2" stroke-width="2" rx="20" filter="url(#softShadow)"/>
    <text x="370.0" y="95.0" text-anchor="middle" 
          fill="#FF85A2" font-family="'Fredoka One', 'Bubblegum Sans', cursive" font-size="20" font-weight="bold">
      11
    </text>
    <text x="370.0" y="112.0" text-anchor="middle" 
          fill="#B8A9C9" font-family="'Varela Round', 'Nunito', sans-serif" font-size="7">
      FOLLOWERS
    </text>
  </g>

  <g class="languages">
    <line x1="435" y1="15" x2="435" y2="185" 
          stroke="#F0D9E8" stroke-width="2"/>
    <text x="445" y="35" fill="#5D4E6D" font-family="'Fredoka One', 'Comic Sans MS', cursive" font-size="10">
      LANGUAGES ✨
    </text>

    <rect x="445" y="53" width="36.764" height="14" 
          rx="7" fill="#FF85A2" opacity="0.8"/>
    <text x="485.764" y="63" fill="#FF85A2" 
          font-family="'Varela Round', 'Nunito', sans-serif" font-size="7" font-weight="bold">
      Python
    </text>
    <text x="570" y="63" fill="#B8A9C9" 
          font-family="'Varela Round', 'Nunito', sans-serif" font-size="7">
      28%
    </text>

    <rect x="445" y="81" width="10" height="14" 
          rx="7" fill="#7DD3FC" opacity="0.8"/>
    <text x="459" y="91" fill="#7DD3FC" 
          font-family="'Varela Round', 'Nunito', sans-serif" font-size="7" font-weight="bold">
      C#
    </text>
    <text x="570" y="91" fill="#B8A9C9" 
          font-family="'Varela Round', 'Nunito', sans-serif" font-size="7">
      6%
    </text>

    <rect x="445" y="109" width="20.28" height="14" 
          rx="7" fill="#FCD34D" opacity="0.8"/>
    <text x="469.28" y="119" fill="#FCD34D" 
          font-family="'Varela Round', 'Nunito', sans-serif" font-size="7" font-weight="bold">
      TypeScri
    </text>
    <text x="570" y="119" fill="#B8A9C9" 
          font-family="'Varela Round', 'Nunito', sans-serif" font-size="7">
      16%
    </text>

    <rect x="445" y="137" width="12.766000000000002" height="14" 
          rx="7" fill="#B088F9" opacity="0.8"/>
    <text x="461.766" y="147" fill="#B088F9" 
          font-family="'Varela Round', 'Nunito', sans-serif" font-size="7" font-weight="bold">
      TeX
    </text>
    <text x="570" y="147" fill="#B8A9C9" 
          font-family="'Varela Round', 'Nunito', sans-serif" font-size="7">
      10%
    </text>
  </g>

  <text x="585" y="192" text-anchor="end" 
        fill="#B8A9C9" font-family="'Varela Round', 'Nunito', sans-serif" font-size="10" font-style="italic">
    last update: 2026-03-21 18:32
  </text>
</svg>